<svg width="116" height="100" viewBox="0 0 116 100" fill="none" xmlns="http://www.w3.org/2000/svg">
<path d="M77.348 45.577C77.785 45.49 78.273 45.564 78.689 45.419C79.48 45.143 79.72 44.279 79.802 43.535C79.945 42.24 79.894 40.902 79.923 39.601C79.982 36.936 80.147 34.309 80.372 31.655C80.399 31.341 80.839 31.338 80.862 31.655C81.133 35.352 81.214 39.024 81.26 42.731C81.275 43.957 81.233 45.293 80.347 46.249C79.56 47.099 78.216 47.609 77.159 47.023C76.59 46.708 76.673 45.712 77.348 45.577Z" fill="#333333"/>
<path d="M69.689 47.065C69.939 48.175 69.96 49.208 70.543 50.229C71.008 51.043 71.901 51.645 72.235 52.495C72.306 52.676 72.129 52.825 71.972 52.841C70.874 52.947 69.774 51.633 69.259 50.796C68.602 49.729 68.09 48.316 68.421 47.066C68.582 46.454 69.545 46.423 69.689 47.065Z" fill="#333333"/>
<path d="M70.701 37.119C70.084 37.53 69.288 37.321 68.939 36.668C68.673 36.171 68.717 35.364 69.008 34.88C69.365 34.286 70.181 34.077 70.74 34.509C71.186 34.854 71.359 35.579 71.231 36.116C71.221 36.156 71.208 36.195 71.195 36.233C71.174 36.592 71.011 36.912 70.701 37.119Z" fill="#333333"/>
<path d="M88.255 34.521C88.693 34.794 88.862 35.362 88.851 35.854C88.848 35.989 88.82 36.115 88.776 36.234C88.754 36.483 88.652 36.728 88.478 36.902C87.938 37.443 87.021 37.323 86.636 36.667C86.357 36.192 86.383 35.411 86.675 34.942C87 34.419 87.714 34.184 88.255 34.521Z" fill="#333333"/>
<path d="M53.169 36.2C52.585 35.278 50.8991 35.315 50.4271 36.313C50.0591 37.09 50.896 38.451 49.518 38.526C49.195 38.544 48.906 38.338 48.739 38.079C47.796 36.62 48.782 34.661 50.295 34.081C51.753 33.522 53.667 34.212 53.937 35.877C54.011 36.331 53.437 36.625 53.169 36.2Z" fill="#333333"/>
<path d="M68.048 26.823C68.765 26.65 69.675 26.504 70.547 26.544C71.225 26.499 71.885 26.57 72.446 26.836C73.792 27.476 73.898 29.063 72.762 29.964C71.319 31.108 64.468 32.616 64.753 29.234C64.877 27.758 66.85 27.112 68.048 26.823Z" fill="#333333"/>
<path d="M85.362 27.164C85.973 26.858 86.728 26.831 87.471 26.941C87.81 26.951 88.14 26.986 88.432 27.03C89.505 27.192 91.311 27.665 91.544 28.948C92.079 31.9 86.378 30.926 85.12 29.948C84.12 29.171 84.193 27.75 85.362 27.164Z" fill="#333333"/>
<path d="M75.715 10.24C75.842 9.92501 76.052 9.65501 76.252 9.38501C76.592 8.92701 76.97 8.50001 77.37 8.09501C77.862 7.59501 78.4 7.13701 78.965 6.71701C78.857 7.20701 78.722 7.69501 78.552 8.16901C78.247 9.01901 77.51 11.097 76.587 11.489C75.195 12.082 75.525 10.72 75.715 10.24ZM1.93004 92.57C2.54004 90.917 3.28004 89.307 4.18004 87.792C5.82204 85.027 7.97003 82.582 10.507 80.607C16.605 75.867 24.645 73.952 32.255 73.897C34.727 73.879 37.182 74.079 39.625 74.457C41.607 74.764 43.74 75.174 45.647 75.947C45.692 73.907 46.105 71.787 46.3 69.852C46.602 66.885 46.902 63.917 47.225 60.95C47.812 55.525 48.192 50.005 49.202 44.633C48.362 44.343 47.575 43.913 46.877 43.361C44.735 41.663 43.825 38.968 44.305 36.298C44.755 33.791 46.437 31.648 48.807 30.735C48.462 27.43 48.415 24.115 48.39 20.793C48.365 17.395 48.307 13.87 48.77 10.498C49.17 7.58601 50.757 4.33301 53.94 3.73101C55.942 3.35101 58.425 4.74101 58.917 6.68801C61.8 3.22801 66.247 1.23101 70.725 0.895007C73.117 0.718007 76.03 0.900012 77.86 2.65001C78.657 3.41501 79.12 4.48801 79.17 5.55201C79.152 5.67501 79.135 5.79701 79.115 5.92001C77.682 6.60001 76.45 7.56001 75.46 8.85301C74.707 9.83301 73.867 11.613 75.292 12.481C76.857 13.433 78.205 11.491 78.83 10.343C79.537 9.04801 80.035 7.63001 80.24 6.17001C80.677 5.98801 81.11 5.81701 81.525 5.65001C83.227 4.97001 84.96 4.50301 86.78 4.28001C90.18 3.86501 94.062 4.22801 96.867 6.37001C99.365 8.28001 100.612 11.412 99.612 14.473C98.78 17.02 96.822 18.9 94.43 19.925C94.72 24.567 94.847 29.227 94.98 33.875C95.135 39.25 95.527 44.753 94.41 50.055C92.417 59.513 84.125 66.188 74.575 66.908C74.427 66.92 74.28 66.926 74.132 66.933C74.37 68.563 74.29 70.356 74.347 71.911C74.415 73.716 74.717 75.733 74.52 77.571C75.885 77.096 77.415 76.941 78.8 76.698C80.612 76.385 82.427 76.133 84.262 75.993C88.1 75.698 91.987 75.838 95.725 76.808C101.945 78.426 107.135 82.408 110.882 87.558C113.037 90.518 115.052 94.128 115.847 97.731C116.152 99.114 114.275 99.571 113.767 98.304C112.272 94.572 110.84 91.066 108.31 87.876C106.002 84.966 103.142 82.466 99.842 80.746C95.877 78.679 91.407 77.991 86.977 77.999C84.705 78.002 82.44 78.201 80.182 78.424C78.192 78.617 76.015 79.186 74.002 78.992C71.672 84.767 65.232 88.555 59.052 88.034C55.912 87.772 52.997 86.526 50.542 84.567C49.317 83.587 48.255 82.445 47.335 81.174C46.62 80.192 45.545 78.716 45.51 77.389C43.91 77.189 42.307 76.844 40.722 76.621C38.572 76.321 36.407 76.144 34.237 76.088C30.23 75.988 26.2 76.393 22.322 77.426C16.135 79.076 10.48 82.353 6.86203 87.743C5.83703 89.271 4.96704 90.911 4.29704 92.626C3.93704 93.549 3.62504 94.489 3.35704 95.441C3.07204 96.461 2.96004 97.563 2.38004 98.466C2.00004 99.061 0.907035 99.049 0.755035 98.254C0.405035 96.428 1.30504 94.273 1.93004 92.57ZM72.485 3.12001C72.505 3.13201 72.522 3.14201 72.54 3.15201C72.552 3.14501 72.565 3.13501 72.577 3.12701C72.547 3.12501 72.515 3.12501 72.485 3.12001ZM82.722 13.695C82.662 13.765 82.6 13.838 82.54 13.908C82.567 13.898 82.597 13.888 82.625 13.878C82.667 13.865 82.712 13.858 82.755 13.85C82.74 13.8 82.727 13.747 82.722 13.695ZM83.927 15.908C83.952 15.915 83.975 15.923 84 15.93C84.002 15.91 84.007 15.893 84.01 15.875C83.982 15.885 83.955 15.897 83.927 15.908ZM48.91 79.4C49.66 80.548 50.577 81.575 51.61 82.473C53.667 84.258 56.31 85.508 59.022 85.833C64.765 86.521 69.86 83.168 73.062 78.653C73 78.578 72.95 78.491 72.925 78.385C72.415 76.37 72.697 73.983 72.672 71.91C72.67 71.637 72.662 71.357 72.652 71.072C71.682 71.342 70.565 71.112 69.605 70.91C68.157 70.607 66.76 70.112 65.415 69.5C62.692 68.262 60.115 66.41 58.267 64.048C58.182 63.938 58.132 63.825 58.102 63.715C57.91 63.087 58.495 62.295 59.277 62.47C61.41 62.95 63.48 63.648 65.632 64.062C67.932 64.505 70.272 64.752 72.615 64.747C77.037 64.737 81.305 63.637 85.01 61.172C88.947 58.55 91.54 54.582 92.64 50.007C93.845 44.997 93.532 39.732 93.447 34.624C93.37 29.862 93.275 25.087 93.347 20.319C93.13 20.384 92.912 20.447 92.69 20.499C90.74 20.964 88.74 20.947 86.767 20.646C84.82 20.354 82.262 19.889 80.59 18.731C79.862 19.869 78.66 20.761 77.54 21.406C75.787 22.413 73.707 22.918 71.695 22.973C69.645 23.028 67.602 22.51 65.75 21.656C64.48 21.068 62.895 20.149 61.93 18.941C61.59 21.021 60.49 23.169 59.525 24.829C58.217 27.076 56.532 29.234 54.512 30.906C55.287 31.288 55.927 31.856 56.292 32.641C56.385 32.843 56.23 33.119 55.982 33.043C53.915 32.4 52.255 31.523 50.015 32.12C47.897 32.685 46.425 34.473 46.045 36.6C45.682 38.642 46.427 40.718 48.1 41.965C48.93 42.585 49.937 43 50.967 43.127C51.92 43.245 52.952 42.802 53.845 43.105C54.41 43.298 54.515 43.892 54.17 44.335C53.415 45.3 51.632 45.137 50.547 44.97C50.445 44.952 50.342 44.932 50.24 44.912C50.185 50.339 49.495 55.794 49.025 61.194C48.775 64.082 48.505 66.964 48.235 69.849C48.102 71.252 47.982 72.654 47.83 74.051C47.727 74.991 47.67 75.956 47.497 76.891C48.072 77.633 48.412 78.643 48.91 79.4ZM76.587 11.489C75.195 12.082 75.525 10.72 75.715 10.24C75.842 9.92501 76.052 9.65501 76.252 9.38501C76.592 8.92701 76.97 8.50001 77.37 8.09501C77.862 7.59501 78.4 7.13701 78.965 6.71701C78.857 7.20701 78.722 7.69501 78.552 8.16901C78.247 9.01901 77.51 11.097 76.587 11.489Z" fill="#333333"/>
</svg>
