<svg width="117" height="95" viewBox="0 0 117 95" fill="none" xmlns="http://www.w3.org/2000/svg">
<path d="M80.4 40.343C79.589 41.011 78.415 41.331 77.465 40.835C76.878 40.528 76.993 39.528 77.654 39.389C78.897 39.127 79.907 39.276 80.114 37.66C80.248 36.617 80.197 35.535 80.223 34.486C80.284 32.009 80.446 29.573 80.677 27.106C80.706 26.793 81.142 26.789 81.167 27.106C81.446 30.556 81.628 34.016 81.565 37.481C81.546 38.573 81.273 39.623 80.4 40.343Z" fill="#333333"/>
<path d="M71.046 29.508C71.492 29.853 71.665 30.578 71.537 31.115C71.528 31.155 71.514 31.194 71.501 31.232C71.479 31.591 71.316 31.911 71.007 32.118C70.39 32.529 69.594 32.32 69.245 31.667C68.979 31.17 69.023 30.363 69.314 29.879C69.672 29.286 70.487 29.077 71.046 29.508Z" fill="#333333"/>
<path d="M88.561 29.521C88.999 29.794 89.168 30.362 89.157 30.854C89.154 30.989 89.126 31.115 89.082 31.234C89.06 31.483 88.958 31.728 88.784 31.902C88.244 32.443 87.327 32.323 86.942 31.667C86.663 31.192 86.689 30.411 86.981 29.942C87.306 29.419 88.02 29.184 88.561 29.521Z" fill="#333333"/>
<path d="M72.754 25.49C71.15 26.337 64.362 26.97 65.036 23.665C65.325 22.248 67.335 21.875 68.502 21.723C69.258 21.625 70.247 21.582 71.161 21.742C71.909 21.791 72.617 21.979 73.156 22.409C74.32 23.335 73.994 24.835 72.754 25.49Z" fill="#333333"/>
<path d="M85.575 25.239C84.544 24.606 84.387 23.28 85.383 22.524C85.953 22.091 86.735 21.968 87.517 21.997C87.958 21.962 88.393 21.975 88.755 22.006C89.813 22.097 91.607 22.437 91.871 23.7C92.459 26.516 86.932 26.072 85.575 25.239Z" fill="#333333"/>
<path d="M2.23602 87.57C2.84602 85.917 3.58602 84.307 4.48602 82.792C6.12802 80.027 8.27601 77.582 10.813 75.607C16.911 70.867 24.951 68.952 32.56 68.897C35.033 68.879 37.488 69.079 39.93 69.457C41.975 69.774 44.18 70.202 46.135 71.022C45.933 68.637 46.5 66.027 46.735 63.707C47.018 60.897 47.3 58.087 47.602 55.279C48.165 50.077 48.52 44.779 49.502 39.632C48.665 39.342 47.877 38.912 47.182 38.36C45.039 36.662 44.129 33.967 44.609 31.297C45.084 28.644 46.939 26.4 49.529 25.584C49.782 25.504 50.057 25.439 50.342 25.389C49.222 16.127 54.052 7.05401 62.427 2.81401C70.822 -1.43899 81.539 0.169008 88.639 6.26601C91.664 8.86101 93.709 12.341 94.517 16.238C95.349 20.256 95.442 24.311 95.495 28.396C95.56 33.536 95.925 38.734 95.07 43.831C94.277 48.573 92.145 52.898 88.592 56.173C84.6 59.858 79.622 61.7 74.46 62.081C74.67 63.668 74.597 65.401 74.652 66.908C74.72 68.713 75.022 70.73 74.825 72.568C76.19 72.093 77.72 71.938 79.105 71.695C80.918 71.382 82.733 71.13 84.567 70.99C88.404 70.695 92.292 70.835 96.029 71.805C102.249 73.423 107.439 77.405 111.187 82.555C113.342 85.515 115.357 89.125 116.152 92.728C116.457 94.111 114.58 94.568 114.072 93.301C112.577 89.569 111.145 86.063 108.615 82.873C106.308 79.963 103.447 77.463 100.148 75.743C96.183 73.676 91.713 72.988 87.283 72.996C85.011 72.999 82.746 73.198 80.488 73.421C78.548 73.609 76.428 74.153 74.458 74.001C74.01 75.353 73.278 76.633 72.623 77.888C71.861 79.35 71.101 80.813 70.321 82.266C69.581 83.646 68.841 85.026 68.101 86.406C67.373 87.758 66.736 89.526 65.601 90.584C65.484 90.694 65.356 90.751 65.229 90.772C65.129 90.829 65.001 90.842 64.892 90.774C63.229 89.782 61.812 88.382 60.412 87.057C58.687 85.425 56.992 83.767 55.314 82.085C53.669 80.432 52.037 78.767 50.424 77.085C49.011 75.61 47.471 74.15 46.329 72.45C44.559 72.265 42.784 71.867 41.029 71.62C38.879 71.32 36.714 71.143 34.544 71.087C30.536 70.987 26.506 71.392 22.629 72.425C16.441 74.075 10.787 77.352 7.16903 82.742C6.14403 84.27 5.27403 85.91 4.60403 87.625C4.24403 88.548 3.93202 89.488 3.66402 90.44C3.37902 91.46 3.26703 92.562 2.68603 93.465C2.30603 94.06 1.21403 94.048 1.06103 93.253C0.711028 91.428 1.61102 89.273 2.23602 87.57ZM81.306 55.678C81.296 55.675 81.288 55.67 81.281 55.668C81.274 55.683 81.264 55.698 81.256 55.713C81.271 55.7 81.288 55.69 81.306 55.678ZM74.921 47.995C75.033 47.92 75.109 47.745 75.019 47.62C74.759 47.265 74.441 47.19 74.046 46.998C73.538 46.753 73.061 46.468 72.623 46.111C71.888 45.511 71.491 44.778 71.033 44.019C74.746 43.871 78.246 42.354 81.996 43.431C84.261 44.081 86.421 45.334 88.803 45.521C90.598 45.664 92.181 44.971 93.103 43.651C93.763 40.019 93.701 36.266 93.628 32.586C93.483 25.364 94.473 16.599 89.97 10.406C84.99 3.55901 74.76 0.661009 66.785 2.82101C56.823 5.51901 50.63 15.246 50.88 25.314C53.035 25.082 55.683 25.671 56.597 27.644C56.689 27.846 56.534 28.122 56.287 28.046C54.219 27.403 52.559 26.526 50.32 27.123C48.203 27.688 46.73 29.476 46.35 31.603C45.988 33.645 46.733 35.721 48.405 36.968C49.235 37.588 50.243 38.003 51.273 38.13C52.13 38.238 53.05 37.89 53.875 38.04C54.038 37.685 54.183 37.323 54.29 36.942C54.675 35.589 54.535 34.185 54.872 32.852C55.065 32.084 55.677 31.514 56.427 31.252C56.712 31.152 57.254 31.079 57.527 31.304C57.725 31.396 57.885 31.579 57.952 31.869C58.752 35.301 60.107 38.799 62.779 41.216C64.639 42.896 67.029 43.801 69.504 43.989C69.694 45.234 70.594 46.287 71.567 47.041C72.308 47.617 73.998 48.613 74.921 47.995ZM58.081 38.08C58.084 38.113 58.084 38.143 58.084 38.175C58.099 38.177 58.117 38.177 58.131 38.182C58.113 38.147 58.098 38.113 58.081 38.08ZM51.818 75.962C53.416 77.664 55.033 79.35 56.663 81.022C58.231 82.627 59.801 84.229 61.371 85.829C62.471 86.949 63.626 88.056 64.616 89.287C65.016 88.049 65.888 86.849 66.488 85.752C67.278 84.304 68.07 82.859 68.86 81.414C70.252 78.864 71.548 75.949 73.365 73.649C73.302 73.574 73.255 73.487 73.23 73.384C72.72 71.369 73.002 68.982 72.977 66.909C72.96 65.419 72.809 63.724 72.939 62.149C68.132 62.239 63.229 61.109 58.862 59.044C58.764 58.996 58.689 58.937 58.627 58.869C57.382 58.257 56.262 57.167 55.397 56.226C53.992 54.701 52.772 52.971 51.867 51.101C51.162 49.646 50.604 48.116 50.227 46.541C49.987 49.538 49.662 52.534 49.407 55.511C49.172 58.243 48.92 60.976 48.667 63.706C48.539 65.058 48.425 66.413 48.279 67.766C48.139 69.053 48.089 70.398 47.684 71.633C49.183 72.935 50.465 74.523 51.818 75.962Z" fill="#333333"/>
<path d="M55.392 23.689C54.635 23.689 54.634 22.513 55.392 22.513C56.148 22.513 56.15 23.689 55.392 23.689Z" fill="#333333"/>
<path d="M53.568 20.735C52.712 20.735 52.711 19.405 53.568 19.405C54.423 19.405 54.425 20.735 53.568 20.735Z" fill="#333333"/>
<path d="M56.377 19.572C55.665 19.572 55.664 18.466 56.377 18.466C57.089 18.466 57.09 19.572 56.377 19.572Z" fill="#333333"/>
<path d="M54.379 17.226C53.766 17.226 53.765 16.274 54.379 16.274C54.992 16.274 54.993 17.226 54.379 17.226Z" fill="#333333"/>
<path d="M52.587 23.798C51.974 23.798 51.973 22.846 52.587 22.846C53.2 22.846 53.201 23.798 52.587 23.798Z" fill="#333333"/>
<path d="M53.533 30.328C52.487 30.233 51.166 30.109 50.515 31.117C50.226 31.566 50.185 32.081 50.32 32.588C50.442 33.046 50.684 33.334 50.575 33.814C50.531 34.01 50.33 34.146 50.136 34.148C49.366 34.158 48.98 33.286 48.853 32.627C48.69 31.78 48.879 30.913 49.393 30.22C50.502 28.724 52.386 28.58 53.79 29.706C54.031 29.899 53.836 30.355 53.533 30.328Z" fill="#333333"/>
</svg>
