<svg width="105" height="101" viewBox="0 0 105 101" fill="none" xmlns="http://www.w3.org/2000/svg">
<path d="M69.8329 46.263C71.0759 46.002 72.0859 46.15 72.2939 44.534C72.4279 43.491 72.377 42.409 72.403 41.36C72.464 38.883 72.626 36.446 72.857 33.98C72.886 33.667 73.321 33.663 73.347 33.98C73.626 37.43 73.808 40.89 73.745 44.355C73.725 45.447 73.452 46.498 72.58 47.217C71.769 47.885 70.595 48.205 69.645 47.709C69.058 47.403 69.1729 46.402 69.8329 46.263Z" fill="#333333"/>
<path d="M80.7399 36.396C81.1779 36.669 81.347 37.237 81.336 37.729C81.333 37.864 81.3049 37.99 81.2609 38.109C81.2389 38.358 81.1369 38.603 80.9639 38.777C80.4239 39.318 79.5069 39.198 79.1219 38.542C78.8429 38.067 78.8689 37.286 79.1609 36.817C79.4859 36.293 80.1989 36.058 80.7399 36.396Z" fill="#333333"/>
<path d="M1.47898 94.682C1.97598 93.097 2.59898 91.545 3.34098 90.06C4.66398 87.422 6.43096 84.98 8.58796 82.962C13.723 78.157 20.89 75.932 27.823 75.782C30.033 75.732 32.228 75.912 34.408 76.269C36.298 76.582 38.46 77.014 40.253 77.887C40.053 75.504 40.62 72.897 40.853 70.582C40.865 70.467 40.878 70.352 40.888 70.24C39.538 70.508 38.078 70.445 36.691 70.315C36.928 69.562 37.134 68.8 37.313 68.032C37.61 66.762 37.816 65.477 37.933 64.179C38.05 62.882 38.248 61.402 37.925 60.129C37.855 59.857 37.438 59.854 37.37 60.129C37.063 61.389 37.137 62.757 36.938 64.044C36.745 65.279 36.485 66.506 36.161 67.714C35.936 68.546 35.676 69.369 35.381 70.179C33.278 69.947 31.211 69.554 29.173 68.989C28.411 68.777 27.653 68.544 26.901 68.287C27.448 66.827 27.956 65.122 27.816 63.57C27.798 63.375 27.496 63.233 27.398 63.457C26.773 64.895 26.46 66.457 25.841 67.907C24.974 67.587 24.118 67.237 23.276 66.857C23.233 66.839 23.194 66.819 23.151 66.799C23.346 66.352 23.529 65.902 23.703 65.447C24.548 63.232 25.518 60.477 25.371 58.075C25.356 57.825 25.046 57.805 24.958 58.017C24.523 59.097 24.346 60.297 23.991 61.41C23.631 62.53 23.238 63.65 22.791 64.74C22.571 65.273 22.336 65.803 22.088 66.325C20.596 65.652 19.001 64.837 18.061 63.612C17.851 63.34 17.891 63.047 18.051 62.817C18.069 62.765 18.089 62.714 18.119 62.662C19.817 59.592 20.224 56.415 20.046 52.947C19.874 49.587 19.276 46.25 19.556 42.88C19.814 39.775 20.786 36.752 23.036 34.51C24.938 32.613 27.416 31.503 29.871 30.515C32.523 29.447 35.376 28.57 37.646 26.762C40.229 24.707 41.466 21.595 42.309 18.5C43.849 12.845 44.467 6.072 49.697 2.42C54.969 -1.265 62.232 0.723001 64.972 6.23C64.6 6.26 64.244 6.30001 63.915 6.34301C62.395 6.53601 60.495 6.85301 59.38 8.00101C59.24 8.14601 59.335 8.431 59.555 8.418C61.17 8.338 62.72 7.58601 64.348 7.42301C65.506 7.30801 66.708 7.51001 67.87 7.49801C72.01 8.00301 76.043 9.553 79.452 12.058C82.74 14.473 85.267 17.79 86.375 21.751C87.495 25.751 87.605 29.983 87.66 34.106C87.732 39.414 88.125 44.801 87.35 50.076C86.617 55.056 84.502 59.613 80.775 63.051C76.79 66.726 71.775 68.639 66.637 68.929C66.852 70.527 66.777 72.269 66.835 73.787C66.9 75.567 67.195 77.557 67.012 79.374C68.717 78.711 70.837 78.556 72.52 78.276C74.808 77.893 77.142 77.699 79.46 77.729C83.707 77.784 87.957 78.774 91.618 80.969C94.753 82.847 97.371 85.456 99.506 88.404C101.838 91.627 104.009 95.664 104.756 99.607C105.018 100.979 103.169 101.477 102.678 100.179C101.95 98.262 101.398 96.331 100.498 94.477C99.718 92.864 98.808 91.312 97.773 89.849C95.798 87.061 93.286 84.572 90.343 82.816C86.778 80.691 82.688 79.891 78.575 79.868C76.49 79.856 74.41 80.05 72.338 80.266C70.353 80.471 67.976 81.201 66.003 80.803C65.95 80.791 65.903 80.773 65.863 80.748C65.651 80.668 65.473 80.506 65.411 80.261C65.216 79.486 65.136 78.658 65.113 77.813C63.461 78.433 61.603 78.568 59.866 78.658C57.699 78.77 55.546 78.653 53.399 78.345C51.199 78.03 49.027 77.52 46.929 76.782C45.597 76.315 43.644 75.767 42.389 74.777C42.244 76.182 42.187 77.647 41.647 78.959C41.495 79.331 41.005 79.524 40.682 79.357C38.347 79.164 36.017 78.464 33.682 78.204C31.312 77.942 28.905 77.862 26.527 78.029C21.899 78.357 17.274 79.669 13.322 82.129C10.577 83.836 8.27896 86.202 6.55396 88.929C5.51396 90.572 4.66695 92.331 4.01395 94.162C3.65695 95.17 3.35197 96.197 3.09397 97.234C2.83597 98.269 2.77597 99.434 2.17597 100.339C1.77097 100.954 0.750972 100.902 0.550972 100.127C0.118972 98.445 0.971981 96.295 1.47898 94.682ZM29.231 38.072C29.236 38.137 29.244 38.205 29.249 38.27C29.264 38.185 29.279 38.097 29.296 38.012C29.274 38.033 29.252 38.053 29.231 38.072ZM42.801 27.585C42.806 27.587 42.809 27.587 42.811 27.59C42.811 27.583 42.811 27.575 42.814 27.568C42.809 27.572 42.806 27.58 42.801 27.585ZM48.064 35.125C48.072 35.135 48.084 35.145 48.091 35.155C48.096 35.14 48.101 35.128 48.106 35.113C48.092 35.117 48.079 35.122 48.064 35.125ZM53.956 5.2C53.964 5.22 53.969 5.238 53.974 5.258C53.991 5.228 54.007 5.20001 54.024 5.17501C54.002 5.18201 53.979 5.19 53.956 5.2ZM66.584 10.663C66.516 10.658 66.447 10.653 66.377 10.65V10.665C66.447 10.673 66.514 10.68 66.584 10.688V10.663ZM41.369 44.175C42.072 44.66 42.907 44.982 43.757 45.083C44.609 45.183 45.499 44.805 46.304 45.086C46.867 45.281 46.977 45.871 46.629 46.313C46.194 46.868 45.429 47.03 44.669 47.038C44.609 52.155 43.964 57.298 43.529 62.388C43.294 65.12 43.042 67.85 42.787 70.583C42.714 71.383 42.642 72.181 42.567 72.981C43.297 73.098 43.972 73.484 44.654 73.778C45.576 74.175 46.502 74.561 47.449 74.893C49.409 75.583 51.427 76.11 53.477 76.456C55.507 76.796 57.589 76.946 59.649 76.939C61.459 76.931 63.294 76.637 65.104 76.674C65.116 75.812 65.156 74.952 65.159 74.134C64.979 74.156 64.796 74.134 64.634 74.061C61.811 73.676 59.176 72.504 56.806 70.879C55.414 69.922 54.141 68.809 53.011 67.551C52.291 66.749 50.959 65.436 50.634 64.224C50.144 63.486 50.929 62.339 51.834 62.896C59.592 67.701 69.379 68.749 77.162 63.396C80.904 60.824 83.609 57.054 84.802 52.674C86.095 47.921 85.859 42.936 85.78 38.061C85.737 35.344 85.813 32.441 85.663 29.566C81.386 29.211 77.321 27.866 73.64 25.636C71.28 24.206 68.7 22.249 66.94 19.884C66.603 20.371 66.24 20.844 65.86 21.296C64.44 22.978 62.675 24.461 60.795 25.601C58.968 26.708 56.96 27.568 54.89 28.103C53.99 28.336 52.94 28.576 51.88 28.696C51.545 30.016 51.11 31.288 50.59 32.556C50.12 33.704 49.655 35.349 48.66 36.134C48.555 36.216 48.407 36.244 48.272 36.221C48.242 36.224 48.209 36.224 48.182 36.218C46.397 35.773 44.977 34.965 43.07 35.411C41.182 35.851 39.83 37.356 39.452 39.238C39.069 41.135 39.759 43.06 41.369 44.175ZM63.026 72.467C63.023 72.464 63.023 72.462 63.023 72.459C63.02 72.462 63.018 72.462 63.015 72.464C63.019 72.465 63.021 72.467 63.026 72.467Z" fill="#333333"/>
<path d="M48.392 36.528C48.419 36.528 48.419 36.57 48.392 36.57C48.365 36.57 48.365 36.528 48.392 36.528Z" fill="#333333"/>
<path d="M66.336 30.432C66.684 30.634 66.666 31.298 66.214 31.366C65.195 31.52 64.175 31.308 63.146 31.338C62.156 31.367 61.138 31.505 60.192 31.801C59.933 31.882 59.706 31.517 59.92 31.333C61.512 29.959 64.445 29.332 66.336 30.432Z" fill="#333333"/>
<path d="M78.0669 31.179C79.6509 30.059 82.3509 30.749 83.6009 32.08C83.7799 32.271 83.6059 32.646 83.3289 32.548C82.5349 32.266 81.665 32.115 80.823 32.086C79.939 32.055 79.063 32.271 78.189 32.113C77.716 32.027 77.7439 31.407 78.0669 31.179Z" fill="#333333"/>
<path d="M63.702 48.057C63.984 48.769 64.203 49.52 64.689 50.127C65.133 50.682 65.876 51.048 66.226 51.651C66.367 51.894 66.229 52.17 65.979 52.258C65.081 52.573 63.973 51.744 63.4 51.125C62.679 50.345 62.119 49.343 62.244 48.254C62.341 47.413 63.386 47.258 63.702 48.057Z" fill="#333333"/>
<path d="M45.8039 38.81C44.9279 38.856 44.047 39.332 43.645 40.133C43.467 40.487 43.3979 40.863 43.3899 41.255C43.3809 41.641 43.4579 41.981 43.2379 42.319C43.1009 42.529 42.874 42.568 42.654 42.472C41.512 41.974 42.1419 39.945 42.6789 39.22C43.4529 38.174 44.657 37.759 45.917 37.983C46.403 38.071 46.2549 38.786 45.8039 38.81Z" fill="#333333"/>
<path d="M63.95 36.52C64.796 36.734 65.766 37.362 65.98 38.254C66.087 38.701 65.633 39.012 65.24 38.822C64.663 38.543 64.204 38.193 63.537 38.141C62.921 38.093 62.27 38.472 61.709 38.115C61.439 37.943 61.351 37.668 61.403 37.364C61.585 36.318 63.159 36.32 63.95 36.52Z" fill="#333333"/>
</svg>
