<svg width="116" height="105" viewBox="0 0 116 105" fill="none" xmlns="http://www.w3.org/2000/svg">
<path d="M70.3496 42.993C69.7326 43.404 68.9366 43.195 68.5876 42.542C68.3216 42.044 68.3656 41.238 68.6566 40.754C69.0136 40.16 69.8296 39.951 70.3886 40.383C70.8346 40.728 71.0076 41.453 70.8796 41.99C70.8696 42.03 70.8566 42.069 70.8436 42.107C70.8216 42.466 70.6586 42.787 70.3496 42.993Z" fill="#333333"/>
<path d="M87.9026 40.396C88.3406 40.669 88.5096 41.237 88.4986 41.729C88.4956 41.864 88.4676 41.99 88.4236 42.109C88.4016 42.358 88.2996 42.603 88.1256 42.777C87.5846 43.318 86.6686 43.198 86.2836 42.542C86.0046 42.067 86.0306 41.286 86.3226 40.817C86.6486 40.293 87.3626 40.058 87.9026 40.396Z" fill="#333333"/>
<path d="M67.7666 30.257C68.4836 30.124 69.3996 30.027 70.2716 30.11C71.0236 30.1 71.7436 30.227 72.3076 30.59C73.5276 31.378 73.4996 32.94 72.2806 33.714C70.7496 34.685 63.7896 35.811 64.3926 32.38C64.6376 30.978 66.6086 30.471 67.7666 30.257Z" fill="#333333"/>
<path d="M84.7296 30.984C85.3056 30.55 86.1006 30.434 86.8916 30.473C87.3246 30.444 87.7506 30.461 88.1066 30.495C89.1596 30.594 90.9546 30.95 91.2116 32.212C91.7876 35.041 86.2646 34.543 84.9116 33.701C83.8856 33.061 83.7296 31.738 84.7296 30.984Z" fill="#333333"/>
<path d="M1.57862 98.445C2.18662 96.792 2.92862 95.182 3.82862 93.667C5.47162 90.903 7.61862 88.456 10.1566 86.483C16.2536 81.743 24.2946 79.826 31.9046 79.772C34.3756 79.755 36.8306 79.953 39.2726 80.332C41.2546 80.639 43.3856 81.048 45.2936 81.82C45.2576 79.63 45.7336 77.311 45.9496 75.218C46.2486 72.32 46.5506 69.422 46.8726 66.527C47.4816 61.039 47.8726 55.449 48.9436 50.025C47.6606 49.816 46.4166 49.277 45.4596 48.54C43.2596 46.845 42.4876 43.907 43.3116 41.288C44.0846 38.832 46.1916 36.744 48.7226 36.138C48.6396 35.412 48.7576 34.648 48.7966 33.912C48.8616 32.69 48.9496 31.469 49.0256 30.248C49.1026 29.026 49.1706 27.804 49.2736 26.584C49.3226 26.008 49.3406 25.404 49.4276 24.82C48.9186 24.458 48.8846 23.398 48.9026 22.817C48.9416 21.553 48.2536 20.382 48.3896 19.18C48.3046 18.903 48.3486 18.578 48.6046 18.28C48.9976 17.822 49.4196 17.377 49.8616 16.944C49.9636 15.669 50.5256 14.323 50.9836 13.201C51.5526 11.806 52.2486 10.468 53.1056 9.22701C54.7586 6.83101 56.9246 4.79801 59.4666 3.37101C65.5406 -0.0399907 73.1206 0.272007 79.4166 2.90301C83.0446 4.41901 86.8456 6.87901 89.1026 10.171C89.4946 10.294 89.8846 10.422 90.2676 10.563C90.2776 10.567 90.2856 10.572 90.2946 10.576C91.2186 10.498 91.6646 12.358 91.8606 12.987C92.1736 13.994 93.1046 14.642 93.2466 15.726C93.2896 16.054 93.2766 16.374 93.2026 16.668C95.3256 16.002 97.6916 17.577 98.2746 19.826C99.1006 23.011 96.9556 25.832 94.1516 27.056C94.3896 31.284 94.5086 35.522 94.6296 39.751C94.7836 45.125 95.1756 50.629 94.0586 55.931C92.0666 65.387 83.7726 72.063 74.2236 72.783C74.0766 72.794 73.9286 72.799 73.7816 72.808C74.0186 74.437 73.9396 76.231 73.9976 77.786C74.0636 79.57 74.3596 81.561 74.1756 83.382C74.1926 83.396 74.2086 83.41 74.2246 83.426C75.5756 82.967 77.0826 82.812 78.4496 82.574C80.2626 82.259 82.0776 82.008 83.9136 81.867C87.7496 81.572 91.6376 81.712 95.3766 82.684C101.597 84.3 106.786 88.283 110.534 93.434C112.689 96.394 114.703 100.003 115.498 103.606C115.803 104.989 113.926 105.446 113.419 104.179C111.924 100.447 110.491 96.941 107.961 93.751C105.654 90.841 102.794 88.342 99.4926 86.621C95.5286 84.554 91.0576 83.865 86.6276 83.873C84.3556 83.877 82.0906 84.077 79.8316 84.298C77.8406 84.492 75.6586 85.063 73.6446 84.865C71.9816 86.363 69.5696 87.266 67.5156 87.899C64.9656 88.685 62.2686 89.054 59.6006 89C56.9926 88.947 54.3656 88.422 51.9296 87.49C49.5826 86.592 46.6556 85.402 44.9466 83.495C44.8736 83.413 44.8236 83.319 44.7906 83.219C43.3146 83.014 41.8366 82.704 40.3726 82.498C38.2236 82.196 36.0596 82.019 33.8896 81.964C29.8806 81.863 25.8516 82.269 21.9726 83.303C15.7856 84.952 10.1316 88.229 6.51261 93.62C5.48761 95.147 4.61862 96.788 3.94862 98.502C3.58762 99.424 3.27561 100.365 3.00861 101.319C2.72261 102.339 2.61062 103.439 2.03162 104.343C1.65062 104.938 0.558624 104.925 0.406624 104.131C0.0526238 102.302 0.952621 100.147 1.57862 98.445ZM77.3256 3.691C73.1466 2.267 68.5456 1.89201 64.2536 3.04301C60.9096 3.94101 57.9216 5.82 55.6446 8.426C54.4916 9.746 53.5486 11.242 52.8066 12.828C52.4756 13.535 52.2466 14.289 52.0286 15.045C53.5456 13.851 55.1876 12.795 56.8026 11.915C59.5776 10.402 62.5976 9.371 65.7076 8.816C69.6236 8.117 73.6356 8.021 77.5956 8.331C80.8016 8.582 84.1616 8.89801 87.3416 9.67901C84.2166 7.24801 81.1926 5.009 77.3256 3.691ZM90.8746 13.954C90.7346 13.559 90.7196 13.163 90.6796 12.75C90.6206 12.149 90.4606 11.78 90.1546 11.414C90.1526 11.414 90.1516 11.414 90.1496 11.414C86.1136 11.414 82.1066 10.498 78.0786 10.235C74.1986 9.98201 70.2486 9.97101 66.4076 10.638C63.3906 11.162 60.4656 12.111 57.7736 13.58C54.7956 15.205 52.4816 17.43 49.9186 19.595C49.7976 19.697 49.6726 19.763 49.5476 19.803C49.6776 20.405 49.9496 20.974 50.0886 21.61C50.1716 21.988 50.1206 22.477 50.1266 22.938C51.1516 21.947 52.4856 21.168 53.6456 20.437C55.2776 19.408 56.9826 18.497 58.7426 17.706C62.2826 16.115 66.0236 14.967 69.8596 14.364C73.6356 13.77 77.4746 13.634 81.2786 14.027C84.7696 14.388 88.3666 15.081 91.4796 16.76C91.5776 16.443 91.6996 16.121 91.7046 15.829C91.7156 15.129 91.0956 14.577 90.8746 13.954ZM52.3026 85.309C54.6526 86.163 57.0906 86.737 59.5976 86.783C62.0046 86.827 64.4086 86.493 66.7316 85.869C68.7126 85.336 70.5416 84.381 72.4516 83.687C72.1146 81.802 72.3426 79.664 72.3206 77.785C72.3176 77.512 72.3096 77.232 72.2996 76.948C71.3296 77.216 70.2136 76.986 69.2536 76.785C67.8056 76.481 66.4096 75.987 65.0636 75.375C62.3406 74.137 59.7626 72.285 57.9156 69.921C57.8316 69.813 57.7786 69.701 57.7496 69.589C57.5566 68.963 58.1426 68.169 58.9266 68.346C61.0586 68.826 63.1286 69.522 65.2806 69.937C67.5796 70.38 69.9206 70.628 72.2636 70.623C76.6856 70.613 80.9536 69.513 84.6586 67.046C88.5966 64.425 91.1876 60.457 92.2886 55.882C93.4946 50.871 93.1826 45.607 93.0976 40.499C93.0256 36.159 92.9436 31.81 92.9836 27.465C89.5566 28.411 85.6196 27.42 82.4516 26.074C80.7216 25.339 79.0926 24.412 77.5976 23.271C76.9816 22.801 76.3576 22.319 75.8036 21.78C76.2256 22.643 76.6516 23.499 77.2386 24.286C78.2286 25.615 79.4986 26.814 80.8236 27.804C81.1636 28.058 80.8816 28.547 80.4916 28.372C77.7496 27.142 75.0656 24.488 74.2726 21.463C72.8346 24.592 70.3166 27.043 67.0296 28.328C64.9396 29.145 62.6676 29.405 60.4416 29.148C59.2926 29.015 57.7566 28.763 56.4706 28.211C56.4456 29.726 56.0506 31.366 55.7416 32.671C55.4806 33.772 55.1516 34.858 54.7166 35.903C54.4956 36.435 54.3546 36.935 54.0116 37.289C54.4696 37.68 54.8556 38.156 55.1366 38.719C55.3686 39.183 54.7446 39.538 54.4476 39.122C53.2336 37.42 50.7296 37.134 48.8616 37.76C46.9626 38.397 45.4286 39.987 44.8666 41.913C44.2656 43.973 44.9266 46.221 46.7326 47.448C48.4216 48.594 50.2626 48.576 52.1696 48.123C52.9676 47.933 53.4986 49.058 52.7416 49.479C51.8846 49.955 50.8956 50.145 49.8936 50.115C49.8976 55.664 49.1676 61.247 48.6756 66.767C48.4246 69.585 48.1536 72.401 47.8846 75.217C47.7526 76.597 47.6326 77.978 47.4806 79.356C47.3586 80.458 47.3026 81.602 47.0416 82.686C48.7956 83.537 50.4446 84.634 52.3026 85.309Z" fill="#333333"/>
<path d="M77.9206 50.546C78.6756 50.656 79.5596 50.57 79.5826 49.625C79.5946 49.145 79.4996 48.654 79.4426 48.18C79.3096 47.076 79.1656 45.973 79.0476 44.868C78.9316 43.781 78.8296 42.691 78.7266 41.603C78.6386 40.674 78.4466 39.636 78.7146 38.728C78.7826 38.498 79.1016 38.452 79.2266 38.661C79.9206 39.829 79.9346 41.527 80.1356 42.848C80.3686 44.377 80.5776 45.908 80.7766 47.442C80.9386 48.689 81.3736 50.242 80.4976 51.318C79.7706 52.21 78.5526 52.174 77.5166 52.018C76.5446 51.872 76.9596 50.407 77.9206 50.546Z" fill="#333333"/>
<path d="M69.1986 53.326C69.4226 54.306 69.7336 55.178 70.4746 55.89C70.8046 56.207 71.1696 56.486 71.5876 56.679C71.9866 56.863 72.4736 56.856 72.7896 57.169C72.8786 57.257 72.8956 57.44 72.7896 57.525C71.9876 58.167 70.3736 57.315 69.6966 56.775C68.7176 55.994 67.9606 54.763 68.0436 53.483C68.0836 52.853 69.0426 52.645 69.1986 53.326Z" fill="#333333"/>
<path d="M52.3326 40.786C51.9206 40.934 51.4406 40.836 51.0006 40.922C50.4686 41.027 49.9436 41.201 49.5266 41.558C49.1176 41.908 48.8336 42.398 48.7366 42.927C48.6476 43.412 48.7736 43.89 48.6216 44.366C48.4856 44.792 47.9566 44.95 47.6266 44.629C46.4566 43.489 47.5236 41.197 48.6256 40.392C49.2586 39.93 50.0536 39.669 50.8396 39.738C51.4146 39.789 52.1996 40.038 52.4346 40.605C52.4666 40.682 52.3996 40.762 52.3326 40.786Z" fill="#333333"/>
</svg>
