<svg width="105" height="95" viewBox="0 0 105 95" fill="none" xmlns="http://www.w3.org/2000/svg">
<path d="M63.8189 29.821C64.2649 30.166 64.4379 30.891 64.3099 31.428C64.3009 31.468 64.2869 31.507 64.2739 31.545C64.2519 31.904 64.0889 32.225 63.7799 32.431C63.1629 32.842 62.3669 32.633 62.0179 31.98C61.7519 31.482 61.7959 30.676 62.0869 30.192C62.4449 29.598 63.2609 29.389 63.8189 29.821Z" fill="#333333"/>
<path d="M80.4379 29.834C80.8759 30.107 81.0449 30.675 81.0339 31.167C81.0309 31.301 81.0029 31.428 80.9589 31.547C80.9369 31.796 80.8349 32.041 80.6609 32.215C80.1199 32.755 79.2039 32.636 78.8189 31.98C78.5399 31.505 78.5659 30.724 78.8579 30.255C79.1839 29.731 79.8969 29.496 80.4379 29.834Z" fill="#333333"/>
<path d="M1.17687 88.12C1.67487 86.535 2.29686 84.983 3.03986 83.498C4.36186 80.863 6.12986 78.418 8.28686 76.4C13.4219 71.595 20.5899 69.37 27.5219 69.22C29.7319 69.172 31.9269 69.35 34.1069 69.707C35.9969 70.02 38.1599 70.452 39.9519 71.325C39.7549 68.942 40.3199 66.337 40.5519 64.02C40.8369 61.21 41.1199 58.4 41.4219 55.593C41.5319 54.58 41.6319 53.566 41.7319 52.548C39.5649 51.791 37.4249 50.953 35.3299 50.011C35.6849 48.204 35.7599 46.288 35.9619 44.491C36.0099 44.064 35.2869 43.974 35.2169 44.389C34.9269 46.071 34.5019 47.816 34.3199 49.547C34.1799 49.484 34.0419 49.419 33.9049 49.354C33.2899 49.061 32.6799 48.759 32.0769 48.449C32.0949 47.976 32.1199 47.504 32.1549 47.031C32.3499 44.384 32.9549 41.884 33.5399 39.308C33.6119 38.981 33.1619 38.868 33.0469 39.173C32.1569 41.511 31.7199 44.086 31.4469 46.566C31.3919 47.058 31.3499 47.551 31.3149 48.044C30.9549 47.849 30.5969 47.649 30.2419 47.444C29.0899 46.776 27.6699 46.086 26.7969 45.061C26.5849 44.814 26.5999 44.469 26.7619 44.241C27.1269 42.384 27.6099 40.544 28.0399 38.701C28.4549 36.923 28.7869 35.079 29.4569 33.376C30.0019 31.991 30.7919 30.798 32.0269 29.944C33.5749 28.874 35.4219 28.419 36.1249 26.471C36.6619 24.984 36.6149 23.343 36.8249 21.794C36.9769 20.659 37.3699 19.619 37.8969 18.604C39.2469 16.009 41.2549 13.716 43.3119 11.661C44.5469 10.426 45.8469 9.22901 47.2399 8.17301C47.7469 7.78801 48.2649 7.401 48.8019 7.046C49.6869 6.193 50.6419 5.40602 51.6619 4.69602C59.8499 -1.00898 71.1949 -0.346992 79.1499 5.49601C81.4569 7.19101 83.3869 9.33101 84.7169 11.824C84.7549 11.851 84.7869 11.887 84.8149 11.931C88.5649 18.199 89.7919 25.964 89.4169 33.178C89.2999 35.448 89.0949 37.748 89.4399 40.008C89.6999 41.703 90.2819 43.283 90.8219 44.9C91.9569 48.29 92.0269 51.707 91.8219 55.253C91.8069 55.52 91.6819 55.715 91.5099 55.84C91.4669 55.93 91.3899 56.008 91.2699 56.052C89.9619 56.542 88.5469 56.78 87.1369 56.947C87.0919 55.327 87.1149 53.67 86.8699 52.067C86.8149 51.695 86.2999 51.837 86.2699 52.147C86.0999 53.762 86.2019 55.424 86.2399 57.049C85.8519 57.089 85.4699 57.129 85.0899 57.169C83.1149 57.384 81.1349 57.514 79.1499 57.607C75.4069 60.549 70.9199 62.107 66.3349 62.367C66.5499 63.962 66.4749 65.707 66.5319 67.222C66.5969 69.005 66.8919 70.992 66.7099 72.809C68.4149 72.146 70.5349 71.991 72.2169 71.711C74.5049 71.331 76.8399 71.136 79.1569 71.164C83.4019 71.219 87.6549 72.209 91.3149 74.404C94.4499 76.284 97.0669 78.891 99.2019 81.839C101.535 85.062 103.705 89.099 104.452 93.042C104.715 94.414 102.865 94.912 102.375 93.614C101.647 91.697 101.095 89.766 100.195 87.912C99.4149 86.299 98.5049 84.747 97.4699 83.284C95.4949 80.496 92.9819 78.007 90.0399 76.251C86.4749 74.126 82.3849 73.326 78.2719 73.303C76.1869 73.293 74.1069 73.485 72.0349 73.701C70.1869 73.893 67.9999 74.536 66.1169 74.303C64.6549 77.131 63.0219 79.89 61.3049 82.566C59.7019 85.063 57.9819 87.583 55.9299 89.751C55.9749 89.781 56.0199 89.811 56.0619 89.849C56.1969 89.964 56.2919 90.096 56.3519 90.236C56.5369 90.456 56.6549 90.724 56.6619 91.021C56.6799 91.736 56.1949 92.393 55.5199 92.619C54.0519 93.109 52.7069 91.354 53.6249 90.089C53.7749 89.882 53.9769 89.719 54.1999 89.607C53.2419 88.507 52.3769 87.302 51.4699 86.172C50.1569 84.537 48.8299 82.912 47.5099 81.28C45.2869 78.535 42.9969 75.818 40.9569 72.93C40.9199 72.895 40.8819 72.86 40.8449 72.825C40.6849 72.872 40.5149 72.867 40.3769 72.795C38.0419 72.602 35.7119 71.902 33.3769 71.642C31.0069 71.38 28.5999 71.3 26.2219 71.467C21.5949 71.795 16.9699 73.107 13.0169 75.567C10.2719 77.277 7.97487 79.642 6.24987 82.367C5.20987 84.01 4.36186 85.769 3.70986 87.6C3.35186 88.608 3.04686 89.635 2.78986 90.672C2.53186 91.71 2.47186 92.872 1.87186 93.777C1.46686 94.392 0.446864 94.34 0.246864 93.565C-0.183136 91.883 0.669872 89.733 1.17687 88.12ZM31.3419 33.108C31.3449 33.105 31.3469 33.1 31.3499 33.098C31.3599 33.08 31.3669 33.065 31.3749 33.048C31.3619 33.068 31.3519 33.087 31.3419 33.108ZM87.1919 22.375C87.2069 22.372 87.2219 22.375 87.2369 22.375C87.2169 22.265 87.1919 22.158 87.1699 22.047C87.1769 22.155 87.1849 22.265 87.1919 22.375ZM39.2719 28.86C39.2669 28.878 39.2649 28.893 39.2599 28.908C39.2669 28.9 39.2769 28.893 39.2849 28.883C39.2819 28.875 39.2769 28.87 39.2719 28.86ZM41.2019 16.258C41.2099 16.258 41.2149 16.261 41.2199 16.261C41.2599 16.198 41.2999 16.139 41.3369 16.076C41.2919 16.135 41.2499 16.198 41.2019 16.258ZM52.5999 17.935C52.5969 17.95 52.5949 17.965 52.5919 17.978C52.6019 17.981 52.6119 17.981 52.6219 17.983C52.6149 17.965 52.6049 17.95 52.5999 17.935ZM54.1469 8.41501C54.1299 8.43501 54.1119 8.45501 54.0949 8.47501C54.1469 8.44001 54.1969 8.405 54.2499 8.37C54.2149 8.385 54.1799 8.40001 54.1469 8.41501ZM78.4169 10.32C78.4169 10.317 78.4149 10.317 78.4149 10.315C78.4149 10.318 78.4119 10.32 78.4119 10.323L78.4199 10.33C78.4169 10.325 78.4169 10.323 78.4169 10.32ZM48.2569 81.112C49.5269 82.695 50.7899 84.282 52.0399 85.877C52.9449 87.035 53.9299 88.197 54.7319 89.442C54.9569 89.415 55.1849 89.439 55.4019 89.515C57.3869 87.047 59.3249 84.585 61.0449 81.917C62.6319 79.45 64.0649 76.882 65.6369 74.407C61.9449 76.63 56.8869 77.249 52.7419 77.002C50.3999 76.862 48.0619 76.39 45.8669 75.557C44.9169 75.197 43.7849 74.755 42.7419 74.179C44.5849 76.487 46.4069 78.813 48.2569 81.112ZM43.4399 72.508C44.4299 73.058 45.4399 73.563 46.5019 73.96C48.6269 74.755 50.8619 75.188 53.1219 75.323C55.3519 75.455 57.5919 75.298 59.7819 74.86C61.5749 74.5 63.2949 73.915 65.0449 73.422C64.6499 71.58 64.8519 69.462 64.8569 67.57C64.6769 67.595 64.4949 67.57 64.3319 67.497C61.5099 67.112 58.8749 65.94 56.5049 64.315C55.1119 63.358 53.8399 62.245 52.7099 60.99C51.9899 60.185 50.6569 58.873 50.3319 57.66C49.8419 56.922 50.6269 55.775 51.5319 56.335C59.2899 61.138 69.0769 62.188 76.8599 56.835C80.6019 54.263 83.3069 50.49 84.4999 46.11C85.7919 41.358 85.5569 36.373 85.4769 31.5C85.4399 29.14 85.4919 26.647 85.4099 24.15C82.8719 24.338 79.9719 23.14 77.8319 22.09C75.4969 20.945 72.9349 19.337 71.2649 17.23C71.4519 15.617 71.0699 13.722 70.7419 12.358C70.2269 10.19 69.3069 7.89102 67.7519 6.26002C67.4219 5.91502 66.8599 6.36202 67.0999 6.76502C67.1969 6.93002 67.2969 7.09502 67.3919 7.26002C67.3869 7.25702 67.3799 7.25701 67.3749 7.25501C67.3719 7.25501 67.3699 7.258 67.3649 7.258C67.3769 7.263 67.3899 7.26599 67.3999 7.26999C68.4099 8.97999 69.3349 10.64 69.8269 12.61C70.0969 13.69 70.2549 14.793 70.2949 15.908C70.3119 16.393 70.2749 16.895 70.2619 17.395C68.0219 19.813 65.1399 21.435 61.8949 22.345C59.9469 22.89 57.8899 23.2 55.8649 23.19C54.6149 23.185 52.5769 23.245 51.2649 22.56C51.1149 23.475 50.6399 24.367 50.3049 25.212C49.7719 26.545 49.2119 27.867 48.6249 29.177C48.5269 29.394 48.3549 29.517 48.1599 29.562C48.0899 29.637 47.9769 29.677 47.8799 29.654C46.0949 29.209 44.6749 28.401 42.7669 28.847C40.8799 29.287 39.5269 30.792 39.1499 32.674C38.7669 34.574 39.4569 36.497 41.0669 37.612C41.7699 38.097 42.6049 38.42 43.4549 38.52C44.3069 38.623 45.1969 38.243 46.0019 38.523C46.5649 38.718 46.6749 39.308 46.3269 39.753C45.8919 40.305 45.1269 40.468 44.3669 40.476C44.3069 45.593 43.6619 50.736 43.2269 55.826C42.9919 58.558 42.7399 61.288 42.4849 64.021C42.3599 65.374 42.2449 66.729 42.0999 68.081C41.9769 69.189 41.9249 70.339 41.6549 71.429C42.2649 71.758 42.8349 72.172 43.4399 72.508ZM62.7249 65.905C62.7219 65.902 62.7219 65.9 62.7219 65.897C62.7199 65.9 62.7169 65.9 62.7149 65.902C62.7169 65.902 62.7199 65.905 62.7249 65.905Z" fill="#333333"/>
<path d="M48.0899 30.008C48.0629 30.008 48.0629 29.966 48.0899 29.966C48.1169 29.966 48.1169 30.008 48.0899 30.008Z" fill="#333333"/>
<path d="M65.9119 26.148C64.8929 26.302 63.8729 26.09 62.8439 26.12C61.8539 26.149 60.8359 26.287 59.8899 26.583C59.6309 26.664 59.4039 26.299 59.6179 26.115C61.2099 24.741 64.1429 24.114 66.0339 25.214C66.3819 25.416 66.3649 26.08 65.9119 26.148Z" fill="#333333"/>
<path d="M77.7649 25.318C79.3489 24.198 82.0489 24.888 83.2989 26.219C83.4779 26.41 83.3039 26.785 83.0269 26.687C82.2329 26.405 81.3619 26.254 80.5209 26.225C79.6369 26.194 78.7599 26.41 77.8869 26.252C77.4139 26.167 77.4429 25.546 77.7649 25.318Z" fill="#333333"/>
<path d="M71.6059 40.206C72.2759 40.133 72.9889 40.226 73.4659 39.637C74.1959 38.736 73.1429 37.854 72.2389 37.792C71.8919 37.768 71.5679 37.509 71.5789 37.132C71.6659 34.303 71.7129 31.484 72.0489 28.672C72.0989 28.255 72.6699 28.243 72.7069 28.672C72.9349 31.303 72.9089 33.932 72.8999 36.57C74.3009 36.917 75.5419 38.148 75.1759 39.706C74.8089 41.265 72.6659 42.393 71.2449 41.537C70.5959 41.145 70.9329 40.279 71.6059 40.206Z" fill="#333333"/>
<path d="M64.2979 45.961C63.4639 45.048 63.0479 43.948 63.0829 42.716C63.1009 42.104 63.9809 41.97 64.1559 42.571C64.5119 43.796 65.2889 44.762 66.4249 45.341C66.9109 45.589 67.6719 45.691 67.8579 46.283C67.9789 46.669 67.7819 47.045 67.4059 47.203C66.3989 47.629 64.9429 46.667 64.2979 45.961Z" fill="#333333"/>
<path d="M45.4449 31.645C45.2649 31.872 44.8839 31.755 44.6249 31.822C44.2079 31.929 43.7849 32.195 43.5049 32.521C43.1769 32.901 43.0249 33.414 42.9179 33.893C42.8139 34.355 42.8319 34.777 42.4769 35.13C42.2919 35.314 41.9139 35.353 41.7339 35.13C40.9839 34.198 41.7199 32.488 42.4359 31.711C43.1899 30.893 44.3869 30.607 45.3479 31.227C45.4599 31.299 45.5189 31.431 45.4839 31.562C45.4749 31.596 45.4679 31.617 45.4449 31.645Z" fill="#333333"/>
<path d="M67.3949 7.26001C67.3969 7.26501 67.3969 7.26699 67.3999 7.26999C67.4049 7.26999 67.4069 7.27299 67.4119 7.27499C67.4169 7.27199 67.4249 7.27 67.4299 7.267L67.3949 7.26001Z" fill="#F9F5ED"/>
</svg>
