<svg width="106" height="95" viewBox="0 0 106 95" fill="none" xmlns="http://www.w3.org/2000/svg">
<path d="M70.1846 39.701C71.4276 39.44 72.4376 39.588 72.6446 37.972C72.7786 36.929 72.7276 35.847 72.7536 34.798C72.8146 32.321 72.9766 29.885 73.2076 27.418C73.2366 27.105 73.6716 27.101 73.6976 27.418C73.9766 30.868 74.1586 34.328 74.0956 37.793C74.0756 38.885 73.8026 39.936 72.9306 40.655C72.1196 41.323 70.9456 41.643 69.9956 41.147C69.4086 40.84 69.5236 39.84 70.1846 39.701Z" fill="#333333"/>
<path d="M64.4336 32.431C63.8166 32.842 63.0206 32.633 62.6716 31.98C62.4056 31.482 62.4496 30.676 62.7406 30.192C63.0986 29.598 63.9136 29.389 64.4726 29.821C64.9186 30.166 65.0916 30.891 64.9636 31.428C64.9536 31.468 64.9406 31.507 64.9276 31.545C64.9056 31.904 64.7436 32.225 64.4336 32.431Z" fill="#333333"/>
<path d="M81.0906 29.834C81.5286 30.107 81.6976 30.675 81.6866 31.167C81.6836 31.301 81.6556 31.428 81.6116 31.547C81.5896 31.796 81.4876 32.041 81.3136 32.215C80.7736 32.755 79.8566 32.636 79.4716 31.98C79.1926 31.505 79.2186 30.724 79.5106 30.255C79.8366 29.731 80.5506 29.496 81.0906 29.834Z" fill="#333333"/>
<path d="M1.83059 88.12C2.32759 86.535 2.95059 84.983 3.69259 83.498C5.01559 80.863 6.7826 78.418 8.9396 76.4C14.0746 71.595 21.2416 69.37 28.1746 69.22C30.3846 69.172 32.5796 69.35 34.7596 69.707C36.6146 70.015 38.7326 70.435 40.5066 71.275C40.5316 71.235 40.5586 71.195 40.5936 71.16C40.5436 70.443 40.5606 69.707 40.6136 68.965C37.4906 68.19 34.3536 67.165 31.3536 65.897C32.6036 64.125 33.5736 62.155 34.3456 60.135C34.4856 59.767 33.8956 59.532 33.7176 59.87C32.6906 61.82 31.4876 63.623 30.2206 65.403C29.3306 65.006 28.4556 64.583 27.5986 64.141C27.5816 64.131 27.5636 64.123 27.5466 64.113C28.8916 62.703 30.0116 60.998 30.8646 59.396C32.2866 56.729 33.0746 53.851 33.1896 50.831C33.1976 50.629 32.8626 50.581 32.8326 50.784C32.4196 53.624 31.4746 56.426 30.0046 58.894C28.9446 60.677 27.6326 62.059 26.2076 63.399C22.7476 61.504 19.1596 59.081 16.8876 55.926C16.4906 55.561 16.4796 54.831 17.1496 54.664C18.7546 54.262 20.2876 53.952 21.7476 53.129C23.2576 52.279 24.5896 51.181 25.7506 49.899C28.3306 47.051 29.8336 43.432 31.1006 39.854C32.3776 36.254 33.5606 32.642 35.0926 29.137C36.6426 25.594 38.4346 22.159 40.4506 18.86C42.3056 15.822 44.3226 12.93 46.6976 10.305C48.1856 8.12 50.1076 6.235 52.3146 4.698C60.5026 -1.007 71.8476 -0.345008 79.8026 5.49799C83.0906 7.91299 85.6176 11.231 86.7256 15.191C87.1276 16.631 87.4006 18.104 87.5856 19.591C89.9506 26.449 91.4556 33.544 92.1106 40.784C92.4706 44.784 92.6076 48.804 92.5476 52.819C92.5176 54.832 92.4376 56.839 92.3156 58.846C92.1976 60.738 92.2726 63.001 91.5756 64.781C91.5006 64.971 91.3176 65.111 91.1206 65.174C89.7376 65.862 88.2676 66.416 86.7556 66.889C86.9326 66.061 87.0826 65.226 87.2006 64.389C87.5556 61.904 87.5576 59.371 87.3556 56.874C87.3206 56.449 86.6756 56.436 86.6826 56.874C86.7376 59.382 86.5256 61.852 86.1026 64.324C85.9326 65.314 85.7226 66.294 85.4706 67.267C83.3626 67.859 81.2126 68.317 79.1506 68.774C75.2706 69.634 71.3476 70.232 67.4026 70.669C67.4326 71.394 67.4326 72.116 67.3626 72.814C69.0676 72.151 71.1876 71.996 72.8706 71.716C75.1576 71.336 77.4926 71.141 79.8106 71.169C84.0576 71.224 88.3076 72.214 91.9676 74.409C95.1026 76.289 97.7206 78.896 99.8556 81.844C102.188 85.067 104.358 89.104 105.106 93.047C105.368 94.419 103.518 94.917 103.028 93.619C102.301 91.702 101.748 89.771 100.848 87.917C100.068 86.304 99.1576 84.752 98.1226 83.289C96.1476 80.501 93.6356 78.012 90.6926 76.256C87.1276 74.131 83.0376 73.331 78.9256 73.308C76.8406 73.298 74.7606 73.49 72.6876 73.706C70.8726 73.894 68.7276 74.519 66.8656 74.318C65.6326 76.375 62.8706 77.628 60.7156 78.386C58.2076 79.269 55.4606 79.574 52.8226 79.264C50.3326 78.969 47.9246 78.164 45.7526 76.911C44.6926 76.301 43.6926 75.566 42.7726 74.759C42.1656 74.221 41.3756 73.549 40.8776 72.784C38.5946 72.574 36.3126 71.901 34.0296 71.646C31.6596 71.384 29.2526 71.304 26.8746 71.471C22.2466 71.799 17.6216 73.111 13.6696 75.571C10.9246 77.281 8.6266 79.646 6.9016 82.371C5.8616 84.014 5.0146 85.773 4.3616 87.604C4.0036 88.612 3.69858 89.639 3.44158 90.676C3.18358 91.714 3.12358 92.876 2.52358 93.781C2.11858 94.396 1.09858 94.344 0.898582 93.569C0.469582 91.883 1.32259 89.733 1.83059 88.12ZM28.6926 54.772C28.7076 54.792 28.7226 54.812 28.7376 54.835C28.7626 54.775 28.7896 54.715 28.8176 54.655C28.7746 54.695 28.7356 54.733 28.6926 54.772ZM40.4476 55.815C40.4396 55.82 40.4326 55.825 40.4256 55.83C40.3626 56.32 40.3006 56.81 40.2376 57.3C40.3076 56.805 40.3776 56.31 40.4476 55.815ZM43.9906 23.11C43.9876 23.153 43.9856 23.193 43.9806 23.235C43.9976 23.215 44.0136 23.195 44.0276 23.175C44.0156 23.152 44.0026 23.133 43.9906 23.11ZM66.9356 4.10001C66.8676 4.09501 66.7976 4.09201 66.7276 4.08701V4.102C66.7976 4.109 66.8656 4.117 66.9356 4.124V4.10001ZM71.1676 66.992C71.1526 66.962 71.1376 66.929 71.1256 66.897C71.1126 66.89 71.1006 66.882 71.0876 66.872C71.0726 66.922 71.0576 66.97 71.0406 67.017C71.0826 67.01 71.1256 67.003 71.1676 66.992ZM41.7196 37.612C42.4226 38.097 43.2576 38.42 44.1076 38.52C44.9596 38.623 45.8496 38.243 46.6546 38.523C47.2176 38.718 47.3276 39.308 46.9796 39.753C46.5446 40.305 45.7796 40.468 45.0196 40.476C44.9596 45.593 44.3146 50.736 43.8796 55.826C43.6446 58.558 43.3926 61.288 43.1376 64.021C43.0126 65.374 42.8976 66.729 42.7526 68.081C42.6226 69.271 42.5676 70.511 42.2406 71.669C42.7776 72.161 43.2556 72.774 43.7556 73.232C44.5956 74.002 45.5156 74.679 46.4886 75.272C48.5256 76.512 50.8256 77.35 53.2016 77.62C55.5936 77.895 58.0116 77.6 60.2936 76.855C61.4486 76.477 62.5416 75.967 63.6086 75.39C64.4036 74.96 65.1366 74.427 65.9336 74.005C65.8536 73.925 65.7916 73.823 65.7616 73.7C65.2816 71.795 65.5066 69.56 65.5116 67.572C65.3316 67.597 65.1486 67.572 64.9866 67.499C62.1636 67.114 59.5286 65.942 57.1586 64.317C55.7666 63.36 54.4936 62.247 53.3636 60.992C52.6436 60.187 51.3116 58.875 50.9856 57.662C50.4956 56.924 51.2806 55.777 52.1856 56.337C59.9426 61.14 69.7306 62.19 77.5126 56.837C81.2556 54.265 83.9606 50.492 85.1526 46.112C86.4456 41.36 86.2106 36.375 86.1306 31.502C86.0876 28.777 86.1626 25.872 86.0126 22.994C82.4676 22.586 79.2356 21.206 76.3806 19.054C74.1626 17.384 71.6756 14.991 70.3876 12.322C68.4876 16.792 64.3056 20.537 60.4856 23.17C58.0906 24.82 55.4956 26.15 52.7726 27.167C51.4426 27.664 49.9206 28.219 48.3856 28.532C48.5826 28.765 48.7506 29.024 48.8676 29.32C48.9506 29.525 48.7156 29.703 48.5326 29.657C46.7476 29.212 45.3276 28.404 43.4206 28.85C41.5326 29.29 40.1806 30.795 39.8036 32.677C39.4206 34.575 40.1106 36.497 41.7196 37.612ZM63.3776 65.905C63.3756 65.902 63.3756 65.9 63.3756 65.897C63.3726 65.9 63.3706 65.9 63.3676 65.902C63.3706 65.902 63.3726 65.905 63.3776 65.905Z" fill="#333333"/>
<path d="M45.9256 31.516C45.1116 31.585 44.1696 31.845 43.6186 32.476C43.3006 32.839 43.1046 33.294 43.0576 33.776C43.0186 34.177 43.1266 34.558 43.0276 34.954C42.9416 35.299 42.5436 35.339 42.3026 35.145C41.2746 34.322 41.9146 32.319 42.6686 31.525C43.5556 30.592 44.9736 30.263 46.0716 30.981C46.3176 31.143 46.2076 31.492 45.9256 31.516Z" fill="#333333"/>
<path d="M62.7466 41.766C63.0066 42.136 63.0876 42.596 63.2806 43.004C63.4996 43.467 63.7836 43.883 64.1466 44.246C64.8316 44.933 65.7016 45.329 66.5656 45.74C66.9016 45.9 66.8386 46.512 66.4566 46.572C65.1686 46.772 63.9846 46.218 63.0486 45.344C62.2026 44.552 61.2046 43.146 61.5296 41.926C61.6886 41.336 62.4316 41.317 62.7466 41.766Z" fill="#333333"/>
<path d="M48.7436 29.966C48.7706 29.966 48.7706 30.008 48.7436 30.008C48.7166 30.008 48.7166 29.966 48.7436 29.966Z" fill="#333333"/>
<path d="M66.6876 25.363C67.0356 25.565 67.0176 26.229 66.5656 26.297C65.5466 26.452 64.5266 26.239 63.4976 26.269C62.5076 26.298 61.4896 26.436 60.5436 26.732C60.2846 26.813 60.0576 26.448 60.2716 26.264C61.8636 24.891 64.7966 24.264 66.6876 25.363Z" fill="#333333"/>
<path d="M78.4186 26.11C80.0026 24.989 82.7026 25.68 83.9526 27.011C84.1316 27.202 83.9576 27.577 83.6806 27.479C82.8866 27.197 82.0156 27.046 81.1746 27.017C80.2906 26.986 79.4146 27.202 78.5406 27.044C78.0666 26.959 78.0956 26.339 78.4186 26.11Z" fill="#333333"/>
</svg>
