<svg width="105" height="94" viewBox="0 0 105 94" fill="none" xmlns="http://www.w3.org/2000/svg">
<path d="M64.2749 31.107C64.2529 31.466 64.0899 31.787 63.7809 31.993C63.1639 32.404 62.3679 32.195 62.0189 31.542C61.7529 31.044 61.7969 30.238 62.0879 29.754C62.4449 29.16 63.2609 28.951 63.8199 29.383C64.2659 29.728 64.4389 30.453 64.3109 30.99C64.3009 31.03 64.2879 31.069 64.2749 31.107Z" fill="#333333"/>
<path d="M80.6609 31.776C80.1199 32.317 79.2039 32.197 78.8189 31.541C78.5399 31.066 78.5659 30.285 78.8579 29.816C79.1829 29.293 79.8969 29.058 80.4369 29.396C80.8749 29.669 81.0439 30.237 81.0329 30.729C81.0299 30.864 81.0019 30.99 80.9579 31.109C80.9369 31.357 80.8349 31.602 80.6609 31.776Z" fill="#333333"/>
<path d="M1.17687 87.682C1.67487 86.097 2.29686 84.545 3.03986 83.06C4.36186 80.422 6.12986 77.98 8.28686 75.962C12.2369 72.265 17.3919 70.097 22.7149 69.225C22.7299 69.21 22.7399 69.192 22.7519 69.177C24.0819 67.825 25.2719 66.505 26.1549 64.807C26.9999 63.182 27.5599 61.42 27.9599 59.635C28.8469 55.682 28.8299 51.622 29.0169 47.597C29.2149 43.359 29.6349 39.034 31.4149 35.13C33.1319 31.362 36.0449 28.44 38.3369 25.053C40.3649 22.05 41.8919 18.7 43.4519 15.423C43.5249 15.168 43.5999 14.915 43.6819 14.665C45.0669 10.363 47.9719 6.82799 51.6619 4.25799C59.8499 -1.44701 71.1949 -0.785003 79.1499 5.058C81.2219 6.581 82.9899 8.46099 84.2949 10.635C86.6999 14.293 88.1499 18.345 88.8599 22.673C89.4599 26.331 89.5419 30.133 90.5799 33.708C91.9369 38.39 93.8149 42.868 94.8599 47.653C95.8269 52.071 96.2569 56.61 95.6349 61.108C95.0269 65.51 93.3949 70.1 90.3319 73.418C90.6649 73.593 90.9919 73.773 91.3149 73.968C94.4499 75.846 97.0669 78.455 99.2019 81.403C101.535 84.626 103.705 88.663 104.452 92.606C104.715 93.978 102.865 94.476 102.375 93.178C101.647 91.261 101.095 89.33 100.195 87.476C99.4149 85.863 98.5049 84.311 97.4699 82.848C95.4949 80.06 92.9819 77.571 90.0399 75.815C86.4749 73.69 82.3849 72.89 78.2719 72.867C76.1869 72.855 74.1069 73.049 72.0349 73.265C70.4419 73.43 68.5949 73.932 66.9099 73.917C63.8099 75.765 59.9119 76.464 56.3849 76.862C52.5919 77.292 48.7369 77.197 44.9699 76.579C39.7869 75.732 34.4599 73.859 29.9249 70.959C28.6899 70.924 27.4519 70.942 26.2219 71.029C21.5949 71.357 16.9699 72.669 13.0169 75.129C10.2719 76.836 7.97487 79.202 6.24987 81.929C5.20987 83.572 4.36186 85.331 3.70986 87.162C3.35186 88.17 3.04686 89.197 2.78986 90.234C2.53186 91.269 2.47186 92.434 1.87186 93.339C1.46686 93.954 0.446864 93.902 0.246864 93.127C-0.183136 91.445 0.669872 89.295 1.17687 87.682ZM85.4769 31.06C85.4169 27.367 85.5799 23.34 85.0969 19.497C83.0069 20.162 80.8699 20.647 78.7049 20.985C78.6099 20.025 78.3299 19.025 78.1399 18.23C77.7699 16.67 77.2969 15.01 76.4919 13.615C76.3899 13.435 76.1099 13.557 76.1599 13.755C76.5499 15.25 77.0749 16.68 77.3419 18.21C77.4999 19.112 77.4649 20.162 77.5569 21.148C76.6599 21.265 75.7569 21.36 74.8519 21.43C74.9219 19.958 74.7299 18.403 74.5569 17.03C74.2619 14.69 73.6369 12.42 72.8219 10.21C72.7449 10.002 72.4349 10.082 72.4849 10.305C72.9849 12.49 73.2919 14.708 73.4399 16.945C73.5399 18.45 73.4149 20.002 73.4299 21.522C71.7399 21.609 70.0469 21.627 68.3599 21.582C65.4669 21.507 62.5869 21.252 59.7219 20.857C58.5769 20.699 57.3669 20.552 56.1619 20.352C56.9049 18.287 57.1249 15.965 57.0319 13.882C57.0149 13.484 56.4719 13.504 56.4299 13.882C56.2419 15.494 55.9169 17.102 55.4519 18.659C55.3019 19.156 55.1269 19.644 54.9419 20.129C53.9649 19.929 53.0019 19.677 52.0949 19.339C52.0049 21.166 51.2769 23.047 50.5969 24.689C50.2119 25.616 49.7949 26.539 49.3049 27.414C49.0749 27.824 48.8569 28.329 48.5369 28.694C49.1319 28.951 49.7219 29.206 50.3099 29.449C52.7419 30.457 55.2399 31.397 57.5919 32.589C57.6169 31.407 58.0319 30.226 58.8599 29.254C60.6819 27.111 63.8719 26.766 66.0969 28.489C67.2269 29.361 67.8949 30.581 68.0999 31.874C68.9869 31.306 70.1349 31.071 71.2819 31.124C71.2749 31.049 71.2669 30.974 71.2599 30.899C71.1719 29.972 70.9799 28.934 71.2469 28.024C71.3169 27.794 71.6369 27.749 71.7599 27.959C72.3149 28.891 72.4349 30.161 72.5619 31.309C73.3369 31.491 74.0599 31.804 74.6419 32.232C74.7349 31.172 75.1419 30.13 75.8869 29.255C77.7099 27.112 80.8999 26.767 83.1249 28.49C84.3999 29.475 85.0899 30.905 85.1819 32.383C85.2799 32.335 85.3749 32.288 85.4649 32.238C85.4769 32.23 85.4869 32.226 85.4999 32.218C85.4919 31.833 85.4849 31.445 85.4769 31.06ZM59.9649 36.025C61.8499 37.738 64.6969 37.335 66.3369 35.518C67.7169 33.608 67.6099 31.013 65.7999 29.4C64.0449 27.837 61.3669 27.923 59.7349 29.62C57.9749 31.45 58.0919 34.32 59.9649 36.025ZM76.9919 36.025C78.8769 37.738 81.7219 37.335 83.3649 35.518C84.7449 33.608 84.6349 31.013 82.8249 29.4C81.0719 27.837 78.3949 27.923 76.7599 29.62C75.0019 31.45 75.1169 34.32 76.9919 36.025ZM73.3769 65.94C73.3919 65.913 73.4099 65.883 73.4249 65.855C73.3969 65.88 73.3669 65.907 73.3369 65.932C73.3519 65.935 73.3649 65.938 73.3769 65.94ZM69.8469 71.62C69.8419 71.615 69.8349 71.612 69.8299 71.605C69.8269 71.612 69.8249 71.617 69.8219 71.625C69.8299 71.622 69.8399 71.622 69.8469 71.62ZM45.0819 74.59C48.6599 75.24 52.3149 75.403 55.9399 75.087C59.0849 74.817 62.0799 73.975 65.1369 73.342C65.1249 73.315 65.1149 73.287 65.1069 73.26C64.6269 71.355 64.8519 69.12 64.8569 67.132C64.6769 67.154 64.4949 67.132 64.3319 67.059C61.5099 66.674 58.8749 65.502 56.5049 63.877C55.1119 62.92 53.8399 61.807 52.7099 60.549C51.9899 59.747 50.6569 58.434 50.3319 57.222C49.8419 56.484 50.6269 55.337 51.5319 55.894C59.2899 60.699 69.0769 61.747 76.8599 56.394C80.6019 53.822 83.3069 50.052 84.4999 45.672C85.6249 41.529 85.5919 37.214 85.5119 32.947C85.4069 32.997 85.2969 33.042 85.1869 33.082C85.1199 34.115 84.7599 35.142 84.0949 36.032C84.0899 36.042 84.0819 36.047 84.0749 36.054C84.0599 36.079 84.0449 36.102 84.0249 36.124C82.0649 38.329 78.5799 38.711 76.3569 36.657C75.2249 35.609 74.6369 34.187 74.6219 32.757C73.9699 32.497 73.3299 32.257 72.6619 32.107L72.6699 32.145C72.9019 33.675 73.1119 35.205 73.3099 36.74C73.4719 37.987 73.9069 39.54 73.0299 40.617C72.3049 41.507 71.0849 41.472 70.0499 41.317C69.0799 41.169 69.4949 39.704 70.4549 39.844C71.2099 39.954 72.0949 39.869 72.1169 38.921C72.1299 38.444 72.0349 37.951 71.9769 37.476C71.8449 36.374 71.6999 35.271 71.5819 34.163C71.5019 33.423 71.4319 32.681 71.3599 31.941C70.1749 31.918 69.2349 32.351 68.1669 32.698C68.1749 33.856 67.8149 35.031 67.0699 36.031C67.0619 36.041 67.0549 36.046 67.0469 36.053C67.0349 36.078 67.0169 36.101 66.9999 36.123C65.0399 38.328 61.5549 38.71 59.3319 36.656C58.2769 35.681 57.6919 34.383 57.6019 33.053C54.8869 32.256 52.2419 31.138 49.6119 30.108C49.1169 29.913 48.6119 29.725 48.1069 29.538C48.1119 29.551 48.1069 29.568 48.0899 29.568C48.0669 29.568 48.0649 29.538 48.0819 29.528C47.1319 29.176 46.1699 28.823 45.2199 28.443C44.4519 28.268 43.6619 28.198 42.7669 28.408C40.8799 28.848 39.5269 30.353 39.1499 32.235C38.7669 34.132 39.4569 36.057 41.0669 37.173C41.7699 37.658 42.6049 37.98 43.4549 38.081C44.3069 38.181 45.1969 37.803 46.0019 38.084C46.5649 38.279 46.6749 38.869 46.3269 39.311C45.8919 39.866 45.1269 40.028 44.3669 40.036C44.3069 45.153 43.6619 50.296 43.2269 55.386C42.9919 58.118 42.7399 60.848 42.4849 63.581C42.3599 64.934 42.2449 66.289 42.0999 67.639C41.9419 69.086 41.8999 70.604 41.3419 71.959C41.1899 72.331 40.6999 72.524 40.3769 72.357C38.7919 72.224 37.2069 71.864 35.6249 71.562C38.6049 72.932 41.7299 73.983 45.0819 74.59ZM62.7249 65.467C62.7219 65.464 62.7219 65.462 62.7219 65.459C62.7199 65.462 62.7169 65.462 62.7149 65.464C62.7169 65.465 62.7199 65.467 62.7249 65.467Z" fill="#333333"/>
<path d="M45.2729 31.078C44.4589 31.148 43.5169 31.407 42.9659 32.038C42.6479 32.401 42.4509 32.856 42.4039 33.338C42.3649 33.739 42.4729 34.12 42.3749 34.515C42.2889 34.86 41.8909 34.9 41.6499 34.707C40.6219 33.884 41.2619 31.881 42.0159 31.087C42.9029 30.154 44.3209 29.825 45.4189 30.543C45.6649 30.705 45.5549 31.054 45.2729 31.078Z" fill="#333333"/>
<path d="M66.0339 24.776C66.3809 24.978 66.3639 25.642 65.9119 25.71C64.8929 25.864 63.8729 25.652 62.8439 25.682C61.8539 25.711 60.8359 25.849 59.8899 26.145C59.6309 26.226 59.4039 25.861 59.6179 25.677C61.2099 24.303 64.1429 23.677 66.0339 24.776Z" fill="#333333"/>
<path d="M77.7649 23.88C79.3489 22.76 82.0489 23.45 83.2989 24.781C83.4779 24.972 83.3039 25.347 83.0269 25.249C82.2329 24.967 81.3619 24.816 80.5209 24.787C79.6369 24.756 78.7599 24.972 77.8869 24.814C77.4139 24.729 77.4429 24.108 77.7649 23.88Z" fill="#333333"/>
<path d="M63.6619 42C63.9849 42.987 64.2589 43.941 64.9279 44.762C65.4459 45.397 66.4499 45.846 66.7419 46.606C66.8089 46.779 66.6659 46.933 66.5219 46.993C65.5449 47.405 64.2529 46.192 63.6759 45.519C62.8879 44.6 62.2849 43.409 62.3699 42.175C62.4199 41.438 63.4249 41.276 63.6619 42Z" fill="#333333"/>
</svg>
