<svg width="106" height="105" viewBox="0 0 106 105" fill="none" xmlns="http://www.w3.org/2000/svg">
<path d="M64.4721 39.508C64.9181 39.853 65.0911 40.578 64.9631 41.115C64.9531 41.155 64.9401 41.194 64.9271 41.232C64.9051 41.591 64.7431 41.911 64.4331 42.118C63.8161 42.529 63.0201 42.32 62.6711 41.667C62.4051 41.17 62.4491 40.363 62.7401 39.879C63.0981 39.286 63.9131 39.077 64.4721 39.508Z" fill="#333333"/>
<path d="M81.0901 39.521C81.5281 39.794 81.6971 40.362 81.6861 40.854C81.6831 40.989 81.6551 41.115 81.6111 41.234C81.5891 41.483 81.4871 41.728 81.3131 41.902C80.7731 42.443 79.8561 42.323 79.4711 41.667C79.1921 41.192 79.2181 40.411 79.5101 39.942C79.8361 39.419 80.5501 39.184 81.0901 39.521Z" fill="#333333"/>
<path d="M48.5251 12.98C49.0101 13.275 49.0071 13.61 48.5201 13.982C48.4031 14.61 48.1601 14.735 47.7901 14.355C47.4751 14.232 47.2421 13.982 47.0071 13.752C46.5991 13.349 46.2321 12.914 45.8871 12.459C45.4291 11.856 45.0221 11.212 44.6671 10.539C46.0971 11.1 47.4371 11.872 48.5251 12.98ZM1.83006 97.807C2.32706 96.222 2.95005 94.67 3.69205 93.185C5.01505 90.55 6.78206 88.105 8.93906 86.087C14.0741 81.282 21.241 79.057 28.174 78.907C30.384 78.859 32.579 79.037 34.759 79.395C36.569 79.695 38.629 80.102 40.376 80.902C40.439 80.86 40.511 80.83 40.591 80.815C40.436 78.488 40.979 75.96 41.204 73.708C41.489 70.898 41.771 68.088 42.074 65.28C42.299 63.197 42.491 61.1 42.704 59.003C41.264 59.161 39.776 58.75 38.626 57.688C36.509 55.73 36.2841 52.48 38.1531 50.283C38.7981 49.526 39.6181 48.996 40.5031 48.7C40.4401 48.652 40.3781 48.61 40.3151 48.56C38.3181 46.95 37.538 44.372 38.087 41.893C38.63 39.455 40.517 37.453 42.967 36.905C43.059 36.883 43.1601 36.865 43.2571 36.85C42.8021 32.81 43.0821 28.668 44.3321 24.79C44.8401 23.21 45.555 21.735 46.437 20.372C46.325 20.309 46.212 20.245 46.105 20.182C43.972 18.907 41.7921 16.742 41.1801 14.254C40.6851 12.232 41.883 10.327 43.82 10.237C43.847 10.244 43.8721 10.252 43.9001 10.262C44.3831 11.89 45.2231 13.365 46.4631 14.57C47.3581 15.442 49.0661 16.247 49.9161 14.842C50.8631 13.275 48.9731 11.765 47.8811 10.97C46.8781 10.24 45.773 9.66799 44.609 9.27999C44.559 9.14999 44.5091 9.02 44.4611 8.887C43.6941 6.755 42.8261 2.97999 44.9991 1.33699C47.3591 -0.450006 50.3321 2.355 51.6391 4.192C52.0521 4.775 52.3991 5.387 52.6821 6.022C52.7821 6.559 52.9451 7.087 53.0551 7.622C53.2621 8.617 53.4451 9.612 53.5571 10.625C53.5871 10.912 54.0151 10.927 54.0171 10.625C54.0321 9.552 54.0601 8.27499 53.8651 7.08999C53.8871 7.06299 53.912 7.035 53.937 7.008C55.207 5.676 57.0201 5.648 58.2271 7.066C59.1871 8.193 59.6551 9.60599 59.7401 11.076C64.7901 9.86899 70.2251 10.391 75.0371 12.464C75.1701 12.479 75.3021 12.527 75.4301 12.624C75.4471 12.637 75.462 12.649 75.48 12.662C76.995 13.352 78.4501 14.192 79.8021 15.184C83.0901 17.599 85.6171 20.916 86.7251 24.876C87.8451 28.876 87.9551 33.108 88.0101 37.231C88.0621 41.063 88.28 44.936 88.105 48.778C90.377 49.708 91.8671 52.016 91.4921 54.546C91.0851 57.314 88.7201 59.021 86.0971 59.026C84.9721 61.706 83.3351 64.139 81.1251 66.176C77.1401 69.851 72.1251 71.763 66.9871 72.056C67.2021 73.651 67.1271 75.396 67.1851 76.911C67.2501 78.694 67.5451 80.681 67.3621 82.498C69.0671 81.836 71.187 81.68 72.87 81.4C75.157 81.02 77.4921 80.825 79.8101 80.852C84.0571 80.907 88.307 81.897 91.967 84.092C95.102 85.972 97.72 88.58 99.855 91.527C102.187 94.75 104.357 98.787 105.105 102.729C105.367 104.101 103.517 104.599 103.027 103.302C102.3 101.384 101.747 99.454 100.847 97.6C100.067 95.987 99.1571 94.435 98.1221 92.972C96.1471 90.184 93.6351 87.695 90.6921 85.939C87.1271 83.814 83.0371 83.014 78.9251 82.991C76.8401 82.981 74.76 83.174 72.687 83.389C71.07 83.556 69.1901 84.074 67.4821 84.041C68.7821 87.991 67.2401 92.696 63.0751 94.148C60.1401 95.171 56.5851 93.798 54.9501 91.231C54.4971 92.136 53.8201 92.946 53.0701 93.536C51.0671 95.118 48.4451 95.436 46.0651 94.569C41.3181 92.839 38.7231 87.184 40.0001 82.366C38.0101 82.091 36.0221 81.551 34.0301 81.329C31.6601 81.067 29.2531 80.987 26.8751 81.154C22.2471 81.481 17.6221 82.794 13.6701 85.254C10.9251 86.964 8.62705 89.329 6.90205 92.054C5.86205 93.697 5.01507 95.457 4.36207 97.287C4.00407 98.294 3.69905 99.322 3.44205 100.359C3.18505 101.396 3.12406 102.559 2.52406 103.464C2.11906 104.079 1.09906 104.027 0.899055 103.252C0.469055 101.57 1.32206 99.42 1.83006 97.807ZM39.0291 50.65C37.2691 52.477 37.387 55.35 39.259 57.053C40.274 57.976 41.5641 58.28 42.7971 58.088C43.0771 55.403 43.4071 52.723 43.8921 50.081C43.8221 50.071 43.7521 50.061 43.6841 50.051C42.9421 49.936 42.2241 49.701 41.5561 49.361C40.6241 49.49 39.7301 49.92 39.0291 50.65ZM44.1591 31.277C44.0791 31.89 44.0141 32.502 43.9641 33.115C44.0041 32.908 44.0471 32.703 44.0861 32.497C44.1211 32.1 44.1591 31.702 44.1941 31.305C44.1821 31.298 44.1721 31.287 44.1591 31.277ZM52.564 13.173C52.569 13.195 52.5761 13.215 52.5841 13.238C52.5961 13.21 52.6091 13.183 52.6221 13.155C52.6051 13.16 52.585 13.168 52.564 13.173ZM56.2221 26.45C56.1671 26.478 56.115 26.505 56.062 26.533C56.12 26.515 56.1771 26.496 56.2321 26.478C56.2301 26.467 56.2251 26.46 56.2221 26.45ZM58.12 10.228C58.12 10.24 58.1221 10.253 58.1221 10.265C58.1271 10.298 58.1271 10.33 58.1321 10.363C58.1571 10.448 58.18 10.536 58.202 10.62C58.177 10.488 58.15 10.357 58.12 10.228ZM90.6321 54.185C90.8221 52.235 89.7201 50.545 88.0521 49.738C87.9801 50.895 87.8701 52.051 87.7001 53.2C87.4501 54.905 87.0321 56.557 86.4471 58.135C88.5801 57.995 90.4101 56.452 90.6321 54.185ZM77.5121 66.523C81.2551 63.95 83.9601 60.178 85.1521 55.798C86.4451 51.045 86.2101 46.06 86.1301 41.188C86.0671 37.323 86.2471 33.093 85.6771 29.093C81.9021 29.755 78.0601 29.493 74.3671 28.371C70.8321 27.296 66.7301 25.423 64.1401 22.603C63.2001 24.623 60.912 26.363 59.202 27.318C57.952 28.018 56.5721 28.543 55.1671 28.833C54.4321 28.988 53.4201 29.221 52.5321 29.146C52.3501 30.114 52.1271 31.071 51.8571 32.019C51.1821 34.394 50.2521 36.811 48.7691 38.804C48.8021 38.872 48.8391 38.936 48.8671 39.006C48.9501 39.211 48.7151 39.388 48.5321 39.344C48.4501 39.322 48.3671 39.302 48.2851 39.279C48.1801 39.292 48.0731 39.257 47.9831 39.194C46.4451 38.744 45.1281 38.139 43.4201 38.537C41.5321 38.977 40.18 40.482 39.803 42.364C39.42 44.264 40.1101 46.186 41.7201 47.302C42.4231 47.787 43.2581 48.109 44.1081 48.209C44.9601 48.312 45.8501 47.932 46.6551 48.212C47.2181 48.407 47.328 48.997 46.98 49.442C46.733 49.757 46.375 49.944 45.975 50.049C47.8 51.942 47.9721 54.901 46.3651 57.064C46.3571 57.072 46.35 57.079 46.342 57.087C46.327 57.109 46.3121 57.132 46.2951 57.154C45.7921 57.719 45.19 58.164 44.535 58.479C44.323 60.829 44.08 63.177 43.88 65.514C43.645 68.246 43.3931 70.979 43.1381 73.709C43.0131 75.061 42.8981 76.416 42.7531 77.769C42.6231 78.957 42.568 80.194 42.243 81.352C43.888 81.992 45.5081 82.679 47.2211 83.152C49.3191 83.732 51.4681 84.1 53.6411 84.242C55.7481 84.379 57.8561 84.305 59.9531 84.057C61.8561 83.83 63.7611 83.177 65.6661 82.96C65.3131 81.155 65.5061 79.1 65.5111 77.26C65.3311 77.285 65.1481 77.26 64.9861 77.187C62.1631 76.802 59.5281 75.63 57.1581 74.005C55.7661 73.047 54.4931 71.935 53.3631 70.68C52.6431 69.875 51.3111 68.562 50.9851 67.35C50.4951 66.615 51.2801 65.465 52.1851 66.025C59.9421 70.825 69.7301 71.875 77.5121 66.523ZM44.6291 57.395C44.9941 57.163 45.3321 56.877 45.6321 56.547C47.0121 54.634 46.9041 52.039 45.0941 50.427C45.0691 50.405 45.0421 50.387 45.0171 50.364C44.9821 52.705 44.8301 55.053 44.6291 57.395ZM63.3771 75.592C63.3751 75.589 63.3751 75.587 63.3751 75.585C63.3721 75.587 63.3701 75.587 63.3671 75.59C63.3701 75.59 63.3721 75.592 63.3771 75.592ZM42.2021 87.77C42.8421 89.708 44.182 91.377 46.022 92.295C47.772 93.167 49.8851 93.245 51.5721 92.18C52.8971 91.345 53.6301 90.163 54.0801 88.783C54.0501 88.506 54.0401 88.22 54.0521 87.93C54.0901 87.117 55.2951 86.893 55.5101 87.733C56.3721 91.075 59.195 93.721 62.812 92.328C64.485 91.683 65.6671 90.321 66.1221 88.593C66.5221 87.075 66.2671 85.633 66.0421 84.161C64.3621 85.076 62.1971 85.386 60.3801 85.656C58.0851 85.996 55.7421 86.061 53.4301 85.899C49.6021 85.626 45.2601 84.839 41.7871 82.936C41.6871 84.568 41.6751 86.175 42.2021 87.77ZM48.5191 13.982C48.4021 14.61 48.1591 14.735 47.7891 14.355C47.4741 14.232 47.2411 13.982 47.0061 13.752C46.5981 13.349 46.2311 12.914 45.8861 12.459C45.4281 11.856 45.0211 11.212 44.6661 10.539C46.0961 11.099 47.436 11.871 48.523 12.979C49.01 13.275 49.0071 13.61 48.5191 13.982Z" fill="#333333"/>
<path d="M48.7431 39.696C48.7161 39.696 48.7161 39.654 48.7431 39.654C48.7701 39.654 48.7701 39.696 48.7431 39.696Z" fill="#333333"/>
<path d="M66.5651 35.836C65.5461 35.99 64.5261 35.778 63.4971 35.808C62.5071 35.837 61.4891 35.975 60.5431 36.271C60.2841 36.352 60.0571 35.987 60.2711 35.803C61.8631 34.429 64.7961 33.802 66.6871 34.902C67.0341 35.104 67.0171 35.767 66.5651 35.836Z" fill="#333333"/>
<path d="M78.4181 34.006C80.0021 32.886 82.7021 33.576 83.9521 34.907C84.1311 35.098 83.9571 35.473 83.6801 35.375C82.8861 35.093 82.0151 34.942 81.1741 34.913C80.2901 34.882 79.4141 35.098 78.5401 34.94C78.0661 34.854 78.0951 34.234 78.4181 34.006Z" fill="#333333"/>
<path d="M72.2591 49.894C72.9291 49.822 73.6411 49.914 74.1191 49.325C74.8491 48.424 73.7961 47.542 72.8921 47.48C72.5451 47.456 72.2211 47.197 72.2321 46.82C72.3191 43.991 72.3661 41.173 72.7021 38.36C72.7521 37.943 73.3231 37.931 73.3601 38.36C73.5871 40.991 73.5621 43.62 73.5531 46.258C74.9541 46.605 76.1951 47.836 75.8291 49.394C75.4621 50.953 73.3181 52.081 71.8981 51.225C71.2481 50.833 71.5851 49.967 72.2591 49.894Z" fill="#333333"/>
<path d="M64.9511 55.649C64.1171 54.736 63.7011 53.636 63.7361 52.404C63.7541 51.792 64.6341 51.658 64.8091 52.259C65.1651 53.484 65.9421 54.45 67.0781 55.029C67.5641 55.277 68.3251 55.379 68.5111 55.971C68.6321 56.357 68.4351 56.733 68.0591 56.892C67.0521 57.317 65.5961 56.355 64.9511 55.649Z" fill="#333333"/>
<path d="M46.2241 41.532C45.9021 41.665 45.4721 41.624 45.1241 41.706C44.7221 41.8 44.3811 41.921 44.0751 42.215C43.3721 42.889 43.6101 43.597 43.6641 44.44C43.6941 44.915 42.9991 45.227 42.6841 44.846C41.8661 43.855 42.3051 42.148 43.2081 41.348C43.6551 40.952 44.2921 40.673 44.8941 40.658C45.3641 40.646 46.1171 40.811 46.3241 41.286C46.3721 41.393 46.3321 41.487 46.2241 41.532Z" fill="#333333"/>
</svg>
